<svg width="107" height="141" viewBox="0 0 107 141" fill="none" xmlns="http://www.w3.org/2000/svg">
<path d="M46.3 16.3H3.10001L3.19998 2.89995L89.2 2.79995H104.6V16.2L46.3 16.3ZM78 94.6L61.1 77.2L61 77.1L69.3 66.1C72.4 62.4 75.3 58.7 78.6 55.1L89.8 42.2L101.1 29.6L104.2 27.2C104.4 26.9 104.4 26.5 104.2 26.2L98.4 22C98.1 21.9 97.8 22 97.5 22.2L94.8 26L82.5 39.7999L63.6 61L54.5 70.2999L43.2 59L13.8 25.9L11.8 22.7999C11.5 22.5 11.1 22.5 10.8 22.7L5.10001 26.9C5.00001 27.1 5.00001 27.5 5.10001 27.7L8.60001 30.4L24.1 47.9L37.1 63.2C41.1 67.6 44.1 72.5 47.9 77L30.8 94.6H3L3.10001 18.6L104.6 18.4V94.4L78 94.6ZM53.5 83.9999L51.7 86.2999L40.2 99.6C36.2 104.2 31.7 108.9 27.5 113.3C24.8 116 21.3 116.9 17.4 117C13.5 116.9 10.3 114.8 7.60001 112.2C6.00001 110.7 5.99999 108.4 6.29999 106.4C6.69999 105.4 7.39998 104.4 8.19998 103.9C9.49998 102.7 11.5 103.4 12.9 103.8C14.8 104.5 14.2 106.6 15.8 107.5C16.7 108 17.6 108.9 18.7 108.3L20.2 107.6L48.8 78.2999C50.5 80.1 52 81.9999 53.5 83.9999ZM58.9 77.2L54.5 82.7L50 77.2L54.4 72.6L58.9 77.2ZM62.3 94.4999L46.4 94.6C49 91.5 51.9 88.4 54.3 85.1C57 88.2 59.7 91.4999 62.3 94.4999ZM56.2 84.9999L55.5 83.9999L59.9 78.4L60.1 78.5L88 107.3C88.8 108 89.8 108.3 91 108.4C92.7 107.9 93.8 106.2 94.4 104.6C95.6 103.4 97.3 103 99 103.1C100.4 103.5 101.6 104.8 102.1 106.1C102.5 108.3 102.3 110.8 100.5 112.4C97.1 115.2 93.3 117.7 88.6 116.6C85.7 116.2 83 115.2 80.8 113.1C75.9 108.2 70.9 102.6 66.2 97.2L56.2 84.9999ZM60.9 74.5L59.9 75.9H59.7L55.5 71.5L56.6 70.4L60.9 74.5ZM64.4 70L61.9 73.2999H61.8L58.4 70C60.4 69.9 62.6 69.8 64.4 70ZM67.4 65.9C66.9 66.7 66.2 67.6 65.6 68.4H58.6L60.9 66L67.4 65.9ZM70.8 61.7999C70.2 62.7 69.4 63.6 68.7 64.4H62.5L65.2 61.7C66.8 61.9 68.9 61.7999 70.8 61.7999ZM74.1 57.7V57.9C73.3 58.7 72.8 59.7 71.9 60.2999C70.2 60.2 68.2 60.2999 66.4 60.2L68.6 57.7C70.4 57.7 72.3 57.7 74.1 57.7ZM77.4 54L75.5 56.2999H70C70.5 55.5999 71.2 54.8 71.9 54.1L77.4 54ZM80.9 49.9C80.3 50.8 79.5 51.6 78.7 52.5H73.3L75.6 50L80.9 49.9ZM84.3 45.7999V46L82.2 48.4H76.9L79.1 45.7999H84.3ZM87.5 42.2L85.6 44.4L80.6 44.2999C81.1 43.5 81.8 42.9 82.4 42.2H87.5ZM91.1 38.1C90.4 39.1 89.7 39.7 89 40.6H83.8L86 38.1H91.1ZM94.6 34.2999C94.1 35 93.2 35.9 92.6 36.7H87.4L89.5 34.4L94.6 34.2999ZM98.1 30.4L96 32.7H90.7L92.7 30.4H98.1ZM97 25.6L98.2 23.7999L102.2 26.7L97 25.6ZM100.5 27.9L99.4 28.9L94.2 28.7999L95.8 27C97.4 27.3 99 27.6 100.5 27.9ZM47.9 74.2L52.1 70.2L53.3 71.4C52 72.9 50.4 74.2999 49.1 75.7999H49L47.9 74.2ZM50.2 70L46.9 73.1L44.5 70C46.3 70 48.3 70 50.2 70ZM47.5 65.6L50.3 68.5H43.3L41 65.6H47.5ZM43.9 61.9L45.9 64L39.8 64.1L38 62C40 61.9 42.2 61.9 43.9 61.9ZM40.1 57.7L42.4 60.2999H36.8L34.6 57.7H40.1ZM36.8 54.1L38.8 56.2999H33.3L31.5 54.1H36.8ZM33.2 50L35.4 52.5H30L27.9 50H33.2ZM29.8 46.2L31.8 48.4C30.3 48.5 28.4 48.5 26.7 48.5L24.7 46.2H29.8ZM26.2 42.2L28.3 44.7H23.3L21.1 42.2H26.2ZM22.7 38.2L24.9 40.6L24.8 40.7H19.9C19.3 39.9 18.4 39.1 17.8 38.2H22.7ZM19.3 34.4L21.3 36.7H16.3L14.2 34.4H19.3ZM15.7 30.4L17.9 32.7999C16.3 32.8999 14.3 32.8999 12.8 32.7999L10.7 30.4H15.7ZM8.19998 26.5L11 24.4L11.8 25.5L11.7 25.6L8.19998 26.5ZM12.7 27L14.3 28.9H9.19998L8.10001 28.1L12.7 27ZM88.6 128.8C78.1 133.4 67.3 137.4 55.5 138.7C49.1 139.1 42.2 137.3 36 135.4C25.5 131.9 15.1 128.1 6 121.4C4.9 120.4 3.7 119.7 3 118.4V96.4H29.2L19.3 106.6C18.5 107 17.4 107.1 16.7 106.4C15.8 105.4 15.8 104 14.5 103.1C13 102.1 11.2 101.5 9.29999 101.8C7.19999 102.4 4.99998 104.4 4.69998 106.6C4.19998 109.5 5.09998 112.2 7.19998 114.1C10.7 116.8 14.7 119.2 19.3 118.5C23.2 118 26.7 116.7 29.4 113.6L39 103.3L45 96.4H63.7L72.4 106.3C76.5 110.1 79.9 115.8 85.1 117.4C88 118.2 91.9 119 95 117.7C97.5 116.8 99.8 115.3 101.8 113.4C103.7 111.6 104.2 109.2 103.9 106.6C103.6 104.5 101.6 102.5 99.6 101.8C97.2 101.3 95 102 93.3 103.7C92.3 104.8 92.4 106.6 90.7 106.9C89.9 106.9 89.3 106.4 88.7 106L79.5 96.6L104.5 96.4999V118.8C100.1 123.4 94.2 126 88.6 128.8ZM106.1 0.799953L90.4 0.699951L1.60001 0.799953C1.30001 0.799953 0.899988 1.19995 0.799988 1.49995V119.1C1.79999 120.8 3.4 122.2 5 123.4C15.7 131 27.8 135.3 40.1 138.9C46.9 140.7 54.9 141.8 62.1 140C74.7 137.3 86.6 132.8 97.7 126.6C100.9 124.5 104.3 122.5 106.8 119.3V3.69995C106.7 2.59995 107.2 1.29995 106.1 0.799953Z" fill="#FBFBFB"/>
<path d="M14.6 13.6C14.6 10.8 14.4 7.89995 14.6 5.29995C14.7 4.99995 15.2 5.19995 15.4 4.99995C15.4 4.69995 15.5 4.29995 15.3 4.19995L12.8 4.29995C12.1 6.59995 11.3 8.99995 10.4 11.2C9.50001 8.89995 8.80002 6.59995 8.10002 4.29995C7.10002 4.39995 6.2 4.29995 5.3 4.29995V4.59995C5 5.39995 6 4.99995 6.3 5.39995C6.3 7.99995 6.4 11 6.3 13.7C6.2 14.1 5.70001 13.9 5.40001 14L5.3 14.8H8.10002V14C7.80002 13.9 7.5 14 7.3 13.8L7.2 7.49995L7.3 7.39995C8.3 9.89995 9.10001 12.4 9.90001 14.9H10.4C11.3 12.4 12 9.89995 13 7.39995C13.2 9.49995 13 11.7 13 13.8C12.8 14.1 12.4 14 12.2 14.1C12.2 14.4 12.1 14.7 12.2 14.9L15.6 14.8V14C15.1 13.8 14.7 13.9 14.6 13.6Z" fill="#FBFBFB"/>
<path d="M24.3 13.9999L23.5 13.7999C23.4 10.9999 23.4 7.89993 23.6 5.29993C23.8 5.19993 24.1 5.19993 24.4 5.09993V4.29993C23.2 4.29993 22 4.29993 20.8 4.39993V5.19992C21.1 5.29992 21.4 5.09993 21.6 5.29993C21.8 6.39993 21.7 7.69993 21.7 8.79993H18.6C18.7 7.69993 18.5 6.39993 18.8 5.29993C19 5.09993 19.4 5.19993 19.6 5.09993V4.29993H16.1C15.7 4.29993 15.9 4.89992 16 5.19992C16.3 5.29992 16.7 5.09993 16.8 5.39993V13.3999C16.9 13.9999 16.3 13.9999 15.9 13.9999V14.7999H19.6C19.5 14.4999 19.7 14.1999 19.6 13.9999C19.2 13.9999 18.9 13.9999 18.7 13.6999C18.6 12.2999 18.6 11.2999 18.7 9.89993H21.5L21.6 9.99993C21.6 11.2999 21.8 12.5999 21.5 13.8999C21.3 13.9999 21 13.9999 20.7 14.0999V14.7999L24.1 14.8999C24.5 14.6999 24.3 14.1999 24.3 13.9999Z" fill="#FBFBFB"/>
<path d="M23 42.3999C22.9 42.4999 23 42.6999 23.1 42.5999C23.2 42.3999 23.1 42.3999 23 42.3999Z" fill="#FBFBFB"/>
<path d="M32 4.69996C30.6 3.99996 28.6 3.69996 27.2 4.49996C25.8 5.19996 25.3 6.69996 25 7.99996C24.6 10.5 25.2 12.9 27.2 14.4C28.6 15 30.5 15 31.8 14C31.7 13.6 32.6 13 31.8 12.9C31.1 13.5 30.2 13.7 29.2 13.6C27.9 13.2 27 11.8 26.9 10.6C26.6 8.69996 26.7 6.69996 28.2 5.39996C28.9 4.99996 29.7 5.19996 30.4 5.39996C31.3 5.79996 31 6.69996 31.2 7.39996C31.4 7.39996 31.6 7.39996 31.8 7.39996L31.9 5.79996C31.8 5.39996 32.2 5.09996 32 4.69996Z" fill="#FBFBFB"/>
<path d="M31.8 30.3999C31.3 31.1999 30.4 31.5999 29.4 31.5999L28.8 31.4999V23.3999C29.9 23.1999 31.1 23.1999 31.8 24.0999C32.8 25.7999 32.8 28.5999 31.8 30.3999ZM26.1 22.0999V22.8999L26.9 23.1999L27 30.9999C27.1 31.4999 26.9 31.7999 26.5 31.9999C26.6 32.2999 26.4 32.5999 26.7 32.6999C28.6 32.1999 31 33.2999 32.7 31.6999C34.6 29.7999 35 26.7999 34.2 24.2999C32.9 20.7999 28.9 22.5999 26.1 22.0999Z" fill="#FBFBFB"/>
<path d="M38.4 115C37.9 116.6 36.3 117.9 34.8 118.4L34.7 121.4C35.8 121.2 36.9 120.5 37.8 119.7C37.9 122.7 37.8 125.1 37.8 128.3H40.8V115H38.4Z" fill="#FBFBFB"/>
<path d="M41.8 31.5L39.7 27.1C39.7 27 39.8 27 40 27C41.1 26.3 41.4 25 41.3 23.7C41.2 23 40.7 22.4 40 22.2C38.3 22.2 36.7 22.3 35 22.2V23L35.8 23.2C36.1 25.8 35.9 28.8 35.8 31.6C35.6 31.7 35.3 31.8 35 31.9V32.6C36.1 32.7 37.4 32.6 38.6 32.6V31.7999H38.2C37.6 31.4999 37.9 30.7999 37.8 30.2999V23.2999C38.1 23.0999 38.4 23.2 38.7 23.2C39.1 23.3 39.5 23.7 39.6 24.1C39.8 25.1 39.7 26.1999 38.9 26.7999C38.6 27.1999 37.8 26.5999 37.9 27.2999C38.8 29.0999 39.7 30.9 40.5 32.7L42.6 32.6V31.9C42.2 31.7 42 31.7 41.8 31.5Z" fill="#FBFBFB"/>
<path d="M35.5 4.1999C35.2 3.9999 35.2 4.4999 35.2 4.6999C35 5.4999 35.9 4.79991 36 5.29991C36.2 8.19991 36.2 10.9999 36 13.6999C35.9 13.8999 35.7 13.8999 35.5 13.8999C34.9 13.6999 35.2 14.3999 35.1 14.6999H38.8C39.2 13.6999 38.2 14.0999 37.8 13.6999L37.7 10.2999C37.6 9.49991 38.7 9.9999 39.1 9.8999C39.7 10.0999 39.3 10.6999 39.5 11.1999C39.7 11.1999 39.9 11.1999 40.1 11.1999V7.8999H39.5C39.5 8.1999 39.5 8.5999 39.4 8.8999C38.9 8.8999 38.3 8.99991 37.8 8.79991C37.8 7.69991 37.8 6.5999 37.9 5.3999H39.7C40.4 5.4999 39.9 6.39991 40.1 6.79991H40.7C40.8 5.99991 40.9 5.09991 40.8 4.29991L35.5 4.1999Z" fill="#FBFBFB"/>
<path d="M46.3 13.4C45.5 13.6 44.5 13.7 43.8 13.4L43.9 5.69995C43.8 5.09995 44.4 4.99995 44.9 4.99995C45 4.69995 45 4.29995 44.9 4.19995H41.3L41.2 4.89995C41.4 5.19995 41.9 4.99995 42.2 5.19995C42.2 7.69995 42.3 10.6 42.2 13.3C42.4 13.9 41.3 13.9 41.6 14.6C43.5 14.5 45.5 14.8 47.2 14.6L47.4 11.8C46 11.2 46.9 12.9 46.3 13.4Z" fill="#FBFBFB"/>
<path d="M47.8 31.4999C47.2 31.5999 46.7 31.6999 46.2 31.4999C44.5 30.1999 44.6 27.8999 44.7 25.8999C45 24.8999 45.1 23.6999 46.2 23.1999C46.8 22.9999 47.5 22.9999 48 23.3999C49.2 24.3999 49.3 25.9999 49.3 27.4999C49.3 28.9999 49.1 30.5999 47.8 31.4999ZM51.2 27.6999C51.3 25.5999 50.8 23.3999 49 22.2999C47.8 21.7999 46.1 21.6999 45 22.3999C43.7 23.1999 43 24.6999 42.8 26.0999C42.6 28.5999 42.8 31.3999 45.3 32.4999C46.3 32.7999 47.6 32.7999 48.6 32.3999C50.3 31.3999 51 29.4999 51.2 27.6999Z" fill="#FBFBFB"/>
<path d="M49.5 120.8C49.3 121.2 48.9 121.5 48.5 121.7C47.9 121.7 47.4 121.4 47.1 120.8C46.7 119.7 46.7 117.9 48 117.3C48.6 117.3 49.1 117.4 49.3 117.9C49.8 118.8 49.7 120 49.5 120.8ZM50.3 115.5C49 114.9 47.2 114.9 46 115.6C43.9 116.9 43.6 119.8 44.5 121.9C44.9 123 46.1 124 47.3 124C48.3 124.1 49.1 123.5 49.8 122.8C49.8 123.8 49.7 125 49.2 125.9C48.9 126.2 48.5 126.4 48.1 126.3C47.5 126.1 47.4 125.4 47.3 124.9L44.3 125.4C44.6 126.4 45 127.4 46 128C47.1 128.5 48.8 128.7 50 128.2C51.5 127.6 52.3 126.2 52.7 124.7C53.1 121.6 53.5 117.4 50.3 115.5Z" fill="#FBFBFB"/>
<path d="M57.8 45.4999C56 44.1999 53.1 44.1999 51.1 45.1999C49.4 46.0999 48.3 47.8999 47.9 49.5999C47.5 52.0999 48.7 54.4999 50.8 55.7999C52.7 56.9999 55.6 57.0999 57.6 55.8999C59.1 54.9999 60.3 53.2999 60.6 51.5999C60.8 49.1999 59.9 46.8999 57.8 45.4999Z" fill="#FBFBFB"/>
<path d="M53.8 11.9C52.7 11.6 53.5 13 53 13.5C52.3 13.7 51.4 13.6 50.6 13.5C50.4 12.4 50.4 11 50.5 9.69995C51 9.69995 51.5 9.69995 52 9.69995C52.5 9.79995 52.3 10.5 52.4 10.9H53V7.39995H52.4C52.3 7.79995 52.5 8.29995 52.2 8.69995C51.6 8.69995 50.9 8.79995 50.4 8.59995C50.5 7.59995 50.4 6.39995 50.5 5.29995C51.2 5.09995 52 5.19995 52.7 5.29995C53.1 5.59995 53 6.09995 53 6.59995C53.2 6.69995 53.5 6.69995 53.7 6.59995C53.7 5.79995 53.8 4.89995 53.8 4.19995H47.9V4.99995C48.2 5.09995 48.5 4.99995 48.8 5.29995C48.8 7.89995 49 11 48.7 13.8C48.4 14 48 14.2 48.2 14.7C50 14.6 52 14.9 53.9 14.6C53.7 13.6 54.1 12.7 53.8 11.9Z" fill="#FBFBFB"/>
<path d="M51.7 32.5H54.4V31.7C54.1 31.6 53.7 31.7 53.6 31.4L53.5 25.4L53.6 25.3C55 27.8 56.7 30.1 58.1 32.6C58.5 32.6 58.9 32.9 59.3 32.6C59.1 29.4 59.3 26.2 59.4 23.1C59.6 22.9 59.9 22.9 60.2 22.9V22.1H57.5C57.5 22.4 57.4 22.7 57.6 23C57.9 23 58.2 23 58.4 23.2C58.5 25 58.5 27.2 58.4 29.2C56.8 26.9 55.5 24.5 54.2 22.2H51.8V23C52.1 23.2 52.5 22.9 52.6 23.2C52.9 26 52.8 28.9 52.6 31.7C51.9 31.6 51.5 31.9 51.7 32.5Z" fill="#FBFBFB"/>
<path d="M59.7 125.6C59.4 126 58.9 126.3 58.5 126.2C57.6 126 57.4 125.1 57.2 124.3C57.2 123.4 57.3 122.3 58.3 121.9C58.9 121.7 59.3 122.1 59.6 122.3C60.2 123.2 60.1 124.6 59.7 125.6ZM60.9 119.8C60.1 119.4 59.1 119.4 58.3 119.7C57.9 119.9 57.5 120.4 57.1 120.6C57.1 119.6 57.3 118.7 57.6 117.8C57.8 117.4 58.3 117.1 58.7 117.1C59.4 117.2 59.6 117.9 59.7 118.5L62.6 118.1C62.6 117.3 62 116.3 61.2 115.6C59.9 114.6 57.7 114.7 56.3 115.5L55.1 116.5C53.5 119.5 53.4 124.3 55.4 127.2C56.5 128.4 58.2 128.5 59.8 128.3C61.2 127.9 62.3 126.6 62.6 125.1C63.2 123.4 62.8 121 60.9 119.8Z" fill="#FBFBFB"/>
<path d="M59.6 4.19992V4.99993C59.9 5.09993 60.3 4.99993 60.4 5.29993C59.9 7.39993 59.3 9.49993 58.6 11.4999C58 9.39993 57.2 7.29992 56.8 5.19992C57.1 5.09992 57.4 5.09993 57.6 4.99993V4.19992H54.3C53.7 3.99992 54 4.69993 53.9 4.99993C54.2 5.09993 54.5 4.99993 54.7 5.29993L57.6 14.8999H58.5L61.2 5.79993L61.6 5.19992C62.3 5.29992 62.2 4.69993 62.1 4.29993L59.6 4.19992Z" fill="#FBFBFB"/>
<path d="M67.4 22C65 22.3 63 22 60.6 22V22.1C60.8 22.9 60.5 23.9 60.6 24.7H61.3C61.3 24.3 61.3 23.7 61.4 23.3C61.9 23.2 62.5 23.1 63.1 23.1V30.6L62.9 31.5C62.6 31.6 62.3 31.6 62.1 31.7V32.5H65.6C66 32.5 65.8 31.9 65.8 31.7C65.5 31.6 65.2 31.7 65 31.5L64.9 23.3C65.3 22.9 65.8 23.4 66.3 23.2C67 23.3 66.6 24.2 66.7 24.7L67.4 24.8C67.3 23.8 67.6 22.9 67.4 22Z" fill="#FBFBFB"/>
<path d="M67.4 13.6999C66.8 13.6999 66.2999 13.5999 65.7999 13.2999C64.3999 11.4999 64.5 8.79991 64.9 6.79991C65.1 6.19991 65.3 5.59991 65.9 5.29991C66.6 4.99991 67.4 4.99991 68 5.49991C68.9 6.39991 68.9 7.69991 69 8.89991C69.1 10.7999 69.3 12.8999 67.4 13.6999ZM65.1 4.39991C64.4 4.79991 63.7 5.39991 63.4 6.19991C62.5 8.69991 62.1999 11.8999 64.1999 13.8999C65.2999 14.9999 67 14.9999 68.4 14.4999C69.5 13.8999 70.2 12.7999 70.6 11.7999C71.3 9.59991 71.3 6.49991 69.4 4.79991C68.2 3.89991 66.6 3.79991 65.1 4.39991Z" fill="#FBFBFB"/>
<path d="M69.5 125.4C69.2 125.8 69 126.1 68.5 126.3C67.9 126.3 67.4 125.8 67.2 125.3C66.9 124.5 67 123.4 67.6 122.7C68 122.4 68.6 122.3 69 122.7C69.8 123.4 69.9 124.5 69.5 125.4ZM67.8 117.4C68.1 117.3 68.5 117.2 68.8 117.4C69.4 117.8 69.6 118.5 69.5 119.2C69.5 119.7 69.1 120.1 68.6 120.2C68 120.3 67.5 119.9 67.3 119.5C67.2 118.6 67.1 117.7 67.8 117.4ZM71.1 121.2C71.5 120.8 72.1 120.3 72.2 119.7C72.6 118.4 72.4 116.9 71.4 116C70.1 114.9 68.2 114.8 66.5 115.2C65.5 115.7 64.4 116.8 64.4 118C64.3 119.2 64.7 120.4 65.7 121.2C65.2 121.5 64.8 121.8 64.5 122.3C63.8 123.8 63.9 126 65 127.3C66.4 128.9 69.1 128.6 70.9 128C72.4 127.3 72.7 125.5 72.8 124.2C72.7 123 72.1 121.8 71.1 121.2Z" fill="#FBFBFB"/>
<path d="M72.9 31.1999C72.1 31.4999 71.2 31.3999 70.5 31.2999V27.5999C70.9 27.3999 71.3 27.4999 71.8 27.4999C72.7 27.2999 72.3 28.3999 72.5 28.7999C72.7 28.7999 73 28.8999 73.2 28.6999L73.1 25.2999L72.6 25.1999C72.2 25.3999 72.6 26.0999 72.3 26.3999C71.8 26.3999 71.1 26.4999 70.6 26.3999L70.7 22.9999H72.5C73.4 22.8999 73.1 23.8999 73.1 24.3999H73.7C73.8 23.5999 73.8 22.6999 73.8 21.9999C71.9 21.7999 69.9 22.0999 68 21.8999C68 22.0999 68 22.4999 68.1 22.6999C68.4 22.7999 68.9 22.6999 68.9 23.1999V31.1999C68.7 31.5999 68.1 31.7999 68.4 32.3999C70.4 32.1999 72 32.4999 73.9 32.2999L74 29.6999C72.8 29.3999 73.3 30.7999 72.9 31.1999Z" fill="#FBFBFB"/>
<path d="M77 11.8C77 12.4 76.9 12.9 76.7 13.3C76 13.5 75.1 13.6 74.3 13.4C74.1 10.6 74.4 8.09997 74.3 5.19997C74.5 4.89997 75 5.09997 75.2 4.89997C75.2 4.59997 75.3 4.29998 75.1 4.09998H71.5V4.89997L72.3 5.09998C72.5 7.79998 72.4 10.7 72.4 13.5C72.3 13.9 71.5 14 71.9 14.5C73.7 14.4 75.7 14.6 77.4 14.4C77.4 13.4 77.6 12.5 77.6 11.6C77.5 11.7 77.1 11.6 77 11.8Z" fill="#FBFBFB"/>
<path d="M80.1 22.1V22.9L80.8 23.1L80.9 29L80.8 29.1C79.4 26.8 77.9 24.4 76.6 22H74.4C74.1 22.2 74.4 22.6 74.3 22.8L75.3 23.1V30C75.3 30.6 75.4 31.3 75 31.7C74.4 31.6 74.3 32 74.3 32.5C75.1 32.6 76.2 32.5 77.1 32.5V31.7C76.8 31.6 76.5 31.7 76.3 31.5C76.1 29.4 76.1 27 76.3 25.2C77.9 27.6 79.3 30.1 80.8 32.5C81.2 32.5 81.7 32.9 82 32.5C81.8 29.4 81.9 26.1 82 23.2C82 22.7 82.5 23 82.8 22.8C82.8 22.5 82.9 22.2 82.7 22L80.1 22.1Z" fill="#FBFBFB"/>
<path d="M80.8 10.4L81.6 7.4C82 8.4 82.3 9.4 82.5 10.4C82 10.5 81.3 10.6 80.8 10.4ZM85.3 13.4C84.3 10.3 83.5 7.1 82.5 4H81.6C80.6 7.1 80 10.3 78.9 13.4L78.6 13.7C77.9 13.5 78.1 14.2 78.1 14.6H80.6C80.8 14.5 80.7 14 80.7 13.7C80.4 13.6 80 13.7 79.9 13.4C79.9 12.7 80.2 12 80.4 11.4C81.1 11.3 82.1 11.4 82.8 11.4C82.9 12.1 83.3 12.6 83.3 13.4C83.2 13.7 82.9 13.7 82.6 13.6C82.3 13.8 82.5 14.2 82.5 14.5C83.5 14.5 84.7 14.4 85.7 14.5C86.2 14.5 85.9 13.9 85.9 13.6C85.8 13.7 85.4 13.7 85.3 13.4Z" fill="#FBFBFB"/>
<path d="M92.1 4.19995C91.9 4.89995 92.4 5.09995 92.9 5.19995C93.2 7.39995 93.1 8.89995 93 11.2C91.4 8.99995 90.1 6.49995 88.7 4.29995H86.5L86.4 4.39995C86 5.29995 87 5.09995 87.3 5.49995C87.2 8.29995 87.5 11.4 87.2 13.9L86.4 14.1V14.8C87.2 14.9 88.3 14.8 89.2 14.8V14.1L88.4 13.9C88.2 11.9 88.3 9.69995 88.3 7.49995L92.9 14.9L93.9 15.2C94.1 12.4 93.9 9.19995 94 6.69995C94 6.09995 94 5.09995 94.9 5.39995C94.9 5.09995 95 4.79995 94.9 4.59995L92.1 4.19995Z" fill="#FBFBFB"/>
<path d="M101.3 12.3C100.8 13.1 100 13.6 99.1 13.6C98.7 13.6 98.4 13.6 98.1 13.4L98.2 5.3C99.2 5.2 100.6 5.1 101.3 6.2C102.1 8.1 102.1 10.5 101.3 12.3ZM95.4 4.2V4.9C95.6 5.2 96.1 5 96.3 5.2C96.4 8 96.5 11 96.3 13.7C96 13.8 95.6 14.2 95.9 14.6C98 14.3 100.6 15.2 102.1 13.6C104.1 11.6 104.2 8.3 103.2 5.7C101.5 3.1 97.7 4.6 95.4 4.2Z" fill="#FBFBFB"/>
</svg>
