<svg width="100" height="100" viewBox="0 0 100 100" fill="none" xmlns="http://www.w3.org/2000/svg">
<path d="M6.55664 58.7256H7.08057C7.71305 58.7256 8.17562 58.6595 8.46826 58.5273C8.7609 58.3857 8.97803 58.1403 9.11963 57.791C9.21403 57.5267 9.28011 56.8848 9.31787 55.8652C9.35563 54.8457 9.37451 52.9577 9.37451 50.2012V42.1016H6.93896C5.45687 42.1016 4.44206 42.3092 3.89453 42.7246C3.34701 43.14 2.9694 43.9377 2.76172 45.1177L1.43066 44.8345C1.64779 43.8999 1.81299 43.0078 1.92627 42.1582C2.04899 41.2992 2.12451 40.4543 2.15283 39.6235C2.51156 39.7463 3.0166 39.8359 3.66797 39.8926C4.31934 39.9398 5.41911 39.9634 6.96729 39.9634H15.4634C17.2004 39.9634 18.4087 39.9398 19.0884 39.8926C19.7775 39.8359 20.2826 39.7415 20.6035 39.6094V40.0483C20.6035 40.7847 20.6318 41.5493 20.6885 42.3423C20.7546 43.1258 20.849 43.9565 20.9717 44.8345L19.6973 45.0327C19.5368 43.881 19.2111 43.1069 18.7202 42.7104C18.2293 42.3045 17.2617 42.1016 15.8174 42.1016H13.3252C13.2969 43.612 13.278 45.0988 13.2686 46.562C13.2591 48.0252 13.2544 49.7292 13.2544 51.6738V54.3218C13.2544 55.5679 13.2827 56.4411 13.3394 56.9414C13.396 57.4417 13.4857 57.8146 13.6084 58.0601C13.75 58.2961 13.9718 58.466 14.2739 58.5698C14.576 58.6737 15.0008 58.7256 15.5483 58.7256H16.0439V60C15.8079 59.9906 15.4587 59.9764 14.9961 59.9575C13.1458 59.8726 11.8809 59.8301 11.2012 59.8301C10.7103 59.8301 10.0778 59.8442 9.30371 59.8726C8.53906 59.9009 7.62337 59.9434 6.55664 60V58.7256Z" fill="white"/>
<path d="M22.5859 39.7935C22.8597 39.8029 23.2562 39.8218 23.7754 39.8501C25.2292 39.9256 26.2157 39.9634 26.7349 39.9634C27.3862 39.9634 28.5568 39.9209 30.2466 39.8359C30.6242 39.8171 30.9121 39.8029 31.1104 39.7935V41.0679H30.7847C29.9728 41.0679 29.4206 41.2661 29.1279 41.6626C28.8447 42.0591 28.7031 43.1164 28.7031 44.8345V48.5728C29.4961 48.6011 30.2796 48.6247 31.0537 48.6436C31.8278 48.653 32.5924 48.6577 33.3477 48.6577C34.0557 48.6577 34.8534 48.653 35.7407 48.6436C36.6281 48.6247 37.6051 48.6011 38.6719 48.5728V44.8345C38.6719 43.1164 38.5303 42.0591 38.2471 41.6626C37.9639 41.2661 37.4116 41.0679 36.5903 41.0679H36.2646V39.7935C37.1709 39.8501 37.9875 39.8926 38.7144 39.9209C39.4412 39.9492 40.0879 39.9634 40.6543 39.9634C41.1735 39.9634 42.16 39.9256 43.6138 39.8501C44.1235 39.8218 44.52 39.8029 44.8032 39.7935V41.0537C44.7466 41.0537 44.6805 41.0537 44.605 41.0537C44.5389 41.0443 44.4492 41.0396 44.3359 41.0396C43.5902 41.0396 43.0851 41.285 42.8208 41.7759C42.5565 42.2573 42.4243 43.3335 42.4243 45.0044C42.4243 45.2876 42.429 45.7974 42.4385 46.5337C42.4479 47.27 42.4526 47.8742 42.4526 48.3462V51.334C42.4526 51.9004 42.4479 52.6131 42.4385 53.4722C42.429 54.3218 42.4243 54.8929 42.4243 55.1855C42.4243 56.6676 42.5612 57.6353 42.835 58.0884C43.1087 58.5321 43.6279 58.7539 44.3926 58.7539C44.5342 58.7539 44.638 58.7539 44.7041 58.7539C44.7796 58.7445 44.8457 58.735 44.9023 58.7256V60C44.5814 59.9811 44.1283 59.9575 43.543 59.9292C42.0798 59.8631 41.1074 59.8301 40.626 59.8301C40.0879 59.8301 39.4412 59.8442 38.686 59.8726C37.9308 59.9009 37.0671 59.9434 36.0947 60V58.7256C36.1702 58.7256 36.2646 58.7303 36.3779 58.7397C36.4912 58.7492 36.5715 58.7539 36.6187 58.7539C37.4305 58.7539 37.9733 58.5415 38.2471 58.1167C38.5303 57.6919 38.6719 56.5968 38.6719 54.8315V50.7534C37.7184 50.7345 36.8405 50.7204 36.0381 50.7109C35.2357 50.7015 34.4427 50.6968 33.6592 50.6968C32.3187 50.6968 31.3039 50.7015 30.6147 50.7109C29.9351 50.7204 29.2979 50.7345 28.7031 50.7534V54.8315C28.7031 56.5968 28.84 57.6919 29.1138 58.1167C29.397 58.5415 29.9445 58.7539 30.7563 58.7539C30.8035 58.7539 30.8838 58.7492 30.9971 58.7397C31.1198 58.7303 31.2142 58.7256 31.2803 58.7256V60C30.2985 59.9434 29.43 59.9009 28.6748 59.8726C27.9196 59.8442 27.2824 59.8301 26.7632 59.8301C26.2723 59.8301 25.3 59.8631 23.8462 59.9292C23.2609 59.9575 22.8031 59.9811 22.4727 60V58.7256C22.5387 58.735 22.6095 58.7445 22.6851 58.7539C22.7606 58.7539 22.8739 58.7539 23.0249 58.7539C23.7801 58.7539 24.2899 58.5085 24.5542 58.0176C24.828 57.5173 24.9648 56.4458 24.9648 54.8032C24.9648 54.52 24.9601 53.9961 24.9507 53.2314C24.9412 52.4668 24.9365 51.8438 24.9365 51.3623V48.3462C24.9365 47.8175 24.9412 47.1473 24.9507 46.3354C24.9601 45.5236 24.9648 44.9761 24.9648 44.6929C24.9648 43.1825 24.828 42.196 24.5542 41.7334C24.2804 41.2708 23.7801 41.0396 23.0532 41.0396C22.9305 41.0396 22.8361 41.0443 22.77 41.0537C22.7039 41.0537 22.6426 41.0537 22.5859 41.0537V39.7935Z" fill="white"/>
<path d="M55.6641 39.7935V41.0679C55.6074 41.0679 55.5272 41.0632 55.4233 41.0537C55.3195 41.0443 55.244 41.0396 55.1968 41.0396C54.3944 41.0396 53.8516 41.2756 53.5684 41.7476C53.2852 42.2101 53.1436 43.3949 53.1436 45.3018V48.5444C53.1436 50.4513 53.1766 51.806 53.2427 52.6084C53.3088 53.4014 53.422 54.0291 53.5825 54.4917C53.9412 55.6151 54.5737 56.4788 55.48 57.083C56.3862 57.6777 57.5002 57.9751 58.8218 57.9751C59.9074 57.9751 60.8325 57.7957 61.5972 57.437C62.3618 57.0688 62.9849 56.5119 63.4663 55.7661C63.7873 55.2658 64.0138 54.6144 64.146 53.812C64.2876 53.0002 64.3584 51.7965 64.3584 50.2012C64.3584 49.8991 64.3537 49.3988 64.3442 48.7002C64.3348 47.9922 64.3301 47.4399 64.3301 47.0435V45.5566C64.3301 43.5648 64.1885 42.314 63.9053 41.8042C63.6221 41.2944 63.0793 41.0396 62.2769 41.0396C62.1541 41.0396 62.0597 41.0443 61.9937 41.0537C61.9276 41.0537 61.8662 41.0537 61.8096 41.0537V39.7935C62.6875 39.8407 63.4144 39.8784 63.9902 39.9067C64.5755 39.9256 65.0758 39.9351 65.4912 39.9351C65.8783 39.9351 66.3455 39.9256 66.8931 39.9067C67.45 39.8784 68.1722 39.8407 69.0596 39.7935V41.0679H68.833C68.2666 41.0679 67.8465 41.134 67.5728 41.2661C67.299 41.3888 67.1007 41.6107 66.978 41.9316C66.7987 42.4036 66.6854 44.4569 66.6382 48.0913C66.6382 48.6105 66.6335 49.0117 66.624 49.2949C66.624 49.4743 66.624 49.7339 66.624 50.0737C66.6051 53.3022 66.2559 55.5207 65.5762 56.729C64.8965 57.9373 63.8958 58.8719 62.5742 59.5327C61.2526 60.1935 59.7139 60.5239 57.958 60.5239C56.3438 60.5239 54.9089 60.2596 53.6533 59.731C52.4072 59.1929 51.4255 58.4329 50.708 57.4512C50.1699 56.7148 49.7876 55.8652 49.561 54.9023C49.3345 53.9395 49.2212 52.5046 49.2212 50.5977C49.2212 50.0879 49.2354 49.1816 49.2637 47.8789C49.292 46.5762 49.3062 45.533 49.3062 44.7495C49.3062 43.0975 49.1693 42.0732 48.8955 41.6768C48.6312 41.2708 48.1025 41.0679 47.3096 41.0679H46.9697V39.7935C48.0365 39.8407 48.9002 39.8784 49.561 39.9067C50.2313 39.9256 50.8071 39.9351 51.2886 39.9351C51.7323 39.9351 52.2892 39.9256 52.9595 39.9067C53.6297 39.8784 54.5312 39.8407 55.6641 39.7935Z" fill="white"/>
<path d="M70.9287 39.7935C71.8538 39.8501 72.6987 39.8926 73.4634 39.9209C74.2375 39.9492 74.9266 39.9634 75.5308 39.9634C76.1255 39.9634 76.791 39.9492 77.5273 39.9209C78.2731 39.8926 79.0991 39.8501 80.0054 39.7935V41.0679H79.708C79.0566 41.0679 78.5894 41.134 78.3062 41.2661C78.0324 41.3983 77.8341 41.639 77.7114 41.9883C77.6076 42.2809 77.5321 42.8568 77.4849 43.7158C77.4377 44.5749 77.4141 46.1183 77.4141 48.3462V54.166C77.4141 55.4971 77.4377 56.4222 77.4849 56.9414C77.5415 57.4512 77.6359 57.8241 77.7681 58.0601C77.9002 58.2961 78.1221 58.466 78.4336 58.5698C78.7451 58.6737 79.2077 58.7256 79.8213 58.7256H80.1753V60C79.1369 59.9434 78.2259 59.9009 77.4424 59.8726C76.6589 59.8442 75.9933 59.8301 75.4458 59.8301C74.9455 59.8301 74.2988 59.8442 73.5059 59.8726C72.7129 59.9009 71.7925 59.9434 70.7446 60V58.7256H71.0986C71.7311 58.7256 72.2031 58.6737 72.5146 58.5698C72.8262 58.466 73.0386 58.2961 73.1519 58.0601C73.2935 57.7957 73.3926 57.3662 73.4492 56.7715C73.5059 56.1673 73.5342 55.077 73.5342 53.5005V45.2168C73.5342 44.0462 73.5059 43.2297 73.4492 42.7671C73.402 42.2951 73.3123 41.9458 73.1802 41.7192C73.0575 41.4927 72.8403 41.3275 72.5288 41.2236C72.2267 41.1198 71.7878 41.0679 71.2119 41.0679H70.9287V39.7935Z" fill="white"/>
<path d="M95.9214 40.4023V40.7139C95.9214 41.403 95.9591 42.111 96.0347 42.8379C96.1196 43.5553 96.2424 44.2964 96.4028 45.061L94.9302 45.3018C94.7697 44.0745 94.3118 43.1494 93.5566 42.5264C92.8109 41.9033 91.7819 41.5918 90.4697 41.5918C89.252 41.5918 88.2985 41.8325 87.6094 42.314C86.9202 42.7954 86.5757 43.4609 86.5757 44.3105C86.5757 44.877 86.7173 45.3678 87.0005 45.7832C87.2837 46.1891 87.7227 46.5479 88.3174 46.8594C88.7799 47.1048 89.5776 47.4163 90.7104 47.7939C91.8527 48.1715 92.6976 48.4689 93.2451 48.686C94.4818 49.1958 95.4069 49.8613 96.0205 50.6826C96.6436 51.5039 96.9551 52.481 96.9551 53.6138C96.9551 55.6717 96.1668 57.3143 94.5903 58.5415C93.0138 59.7687 90.8757 60.3823 88.1758 60.3823C87.2884 60.3823 86.3916 60.2926 85.4854 60.1133C84.5791 59.9434 83.6965 59.6932 82.8374 59.3628C82.8374 59.259 82.8421 59.1221 82.8516 58.9521C82.861 58.7728 82.8657 58.6406 82.8657 58.5557C82.8657 57.8288 82.8185 57.0877 82.7241 56.3325C82.6392 55.5773 82.5023 54.7985 82.3135 53.9961L83.8569 53.6138C84.2157 55.3507 84.7915 56.5638 85.5845 57.2529C86.3869 57.9421 87.5763 58.2866 89.1528 58.2866C90.4272 58.2866 91.4326 58.0034 92.1689 57.437C92.9053 56.8706 93.2734 56.1107 93.2734 55.1572C93.2734 53.7979 91.9754 52.6603 89.3794 51.7446C88.8035 51.5464 88.3646 51.3906 88.0625 51.2773C86.2689 50.6071 84.9803 49.8283 84.1968 48.9409C83.4227 48.0535 83.0356 46.9443 83.0356 45.6133C83.0356 43.7819 83.7437 42.3045 85.1597 41.1812C86.5757 40.0578 88.4495 39.4961 90.7812 39.4961C91.5931 39.4961 92.4144 39.5716 93.2451 39.7227C94.0853 39.8643 94.9774 40.0908 95.9214 40.4023Z" fill="white"/>
</svg>
