<svg width="100" height="100" viewBox="0 0 100 100" fill="none" xmlns="http://www.w3.org/2000/svg">
<path d="M19.2383 33.1611V35.3584C19.1406 35.3584 19.0023 35.3503 18.8232 35.334C18.6442 35.3177 18.514 35.3096 18.4326 35.3096C17.0492 35.3096 16.1133 35.7165 15.625 36.5303C15.1367 37.3278 14.8926 39.3704 14.8926 42.6582V48.249C14.8926 51.5368 14.9495 53.8724 15.0635 55.2559C15.1774 56.623 15.3727 57.7054 15.6494 58.5029C16.2679 60.4398 17.3584 61.929 18.9209 62.9707C20.4834 63.9961 22.404 64.5088 24.6826 64.5088C26.5544 64.5088 28.1494 64.1995 29.4678 63.5811C30.7861 62.9463 31.8604 61.986 32.6904 60.7002C33.2438 59.8376 33.6344 58.7145 33.8623 57.3311C34.1064 55.9313 34.2285 53.8561 34.2285 51.1055C34.2285 50.5846 34.2204 49.722 34.2041 48.5176C34.1878 47.2969 34.1797 46.3447 34.1797 45.6611V43.0977C34.1797 39.6634 33.9355 37.5068 33.4473 36.6279C32.959 35.749 32.0231 35.3096 30.6396 35.3096C30.4281 35.3096 30.2653 35.3177 30.1514 35.334C30.0374 35.334 29.9316 35.334 29.834 35.334V33.1611C31.3477 33.2425 32.6009 33.3076 33.5938 33.3564C34.6029 33.389 35.4655 33.4053 36.1816 33.4053C36.849 33.4053 37.6546 33.389 38.5986 33.3564C39.5589 33.3076 40.804 33.2425 42.334 33.1611V35.3584H41.9434C40.9668 35.3584 40.2425 35.4723 39.7705 35.7002C39.2985 35.9118 38.9567 36.2943 38.7451 36.8477C38.4359 37.6615 38.2406 41.2015 38.1592 47.4678C38.1592 48.363 38.151 49.0547 38.1348 49.543C38.1348 49.8522 38.1348 50.2998 38.1348 50.8857C38.1022 56.4521 37.5 60.277 36.3281 62.3604C35.1562 64.4437 33.431 66.055 31.1523 67.1943C28.8737 68.3337 26.2207 68.9033 23.1934 68.9033C20.4102 68.9033 17.9362 68.4476 15.7715 67.5361C13.623 66.6084 11.9303 65.2982 10.6934 63.6055C9.76562 62.3359 9.10645 60.8711 8.71582 59.2109C8.3252 57.5508 8.12988 55.0768 8.12988 51.7891C8.12988 50.9102 8.1543 49.3477 8.20312 47.1016C8.25195 44.8555 8.27637 43.057 8.27637 41.7061C8.27637 38.8577 8.04036 37.0918 7.56836 36.4082C7.11263 35.7083 6.20117 35.3584 4.83398 35.3584H4.24805V33.1611C6.08724 33.2425 7.5765 33.3076 8.71582 33.3564C9.87142 33.389 10.8643 33.4053 11.6943 33.4053C12.4593 33.4053 13.4196 33.389 14.5752 33.3564C15.7308 33.3076 17.2852 33.2425 19.2383 33.1611Z" fill="white"/>
<path d="M45.5566 33.1611C47.1517 33.2588 48.6084 33.332 49.9268 33.3809C51.2614 33.4297 52.4495 33.4541 53.4912 33.4541C54.5166 33.4541 55.6641 33.4297 56.9336 33.3809C58.2194 33.332 59.6436 33.2588 61.2061 33.1611V35.3584H60.6934C59.5703 35.3584 58.7646 35.4723 58.2764 35.7002C57.8044 35.9281 57.4626 36.3431 57.251 36.9453C57.0719 37.4499 56.9417 38.4427 56.8604 39.9238C56.779 41.4049 56.7383 44.0661 56.7383 47.9072V57.9414C56.7383 60.2363 56.779 61.8314 56.8604 62.7266C56.958 63.6055 57.1208 64.2484 57.3486 64.6553C57.5765 65.0622 57.959 65.3551 58.4961 65.5342C59.0332 65.7132 59.8307 65.8027 60.8887 65.8027H61.499V68C59.7087 67.9023 58.138 67.8291 56.7871 67.7803C55.4362 67.7314 54.2887 67.707 53.3447 67.707C52.4821 67.707 51.3672 67.7314 50 67.7803C48.6328 67.8291 47.0459 67.9023 45.2393 68V65.8027H45.8496C46.9401 65.8027 47.7539 65.7132 48.291 65.5342C48.8281 65.3551 49.1943 65.0622 49.3896 64.6553C49.6338 64.1995 49.8047 63.459 49.9023 62.4336C50 61.3919 50.0488 59.512 50.0488 56.7939V42.5117C50.0488 40.4935 50 39.0856 49.9023 38.2881C49.821 37.4743 49.6663 36.8721 49.4385 36.4814C49.2269 36.0908 48.8525 35.806 48.3154 35.627C47.7946 35.4479 47.0378 35.3584 46.0449 35.3584H45.5566V33.1611Z" fill="white"/>
<path d="M71.6797 65.8027H72.583C73.6735 65.8027 74.471 65.6888 74.9756 65.4609C75.4801 65.2168 75.8545 64.7936 76.0986 64.1914C76.2614 63.7357 76.3753 62.6289 76.4404 60.8711C76.5055 59.1133 76.5381 55.8581 76.5381 51.1055V37.1406H72.3389C69.7835 37.1406 68.0339 37.4987 67.0898 38.2148C66.1458 38.931 65.4948 40.3063 65.1367 42.3408L62.8418 41.8525C63.2161 40.2412 63.501 38.7031 63.6963 37.2383C63.9079 35.7572 64.0381 34.3005 64.0869 32.8682C64.7054 33.0798 65.5762 33.2344 66.6992 33.332C67.8223 33.4134 69.7184 33.4541 72.3877 33.4541H87.0361C90.0309 33.4541 92.1143 33.4134 93.2861 33.332C94.4743 33.2344 95.3451 33.0716 95.8984 32.8438V33.6006C95.8984 34.8701 95.9473 36.1885 96.0449 37.5557C96.1589 38.9066 96.3216 40.3389 96.5332 41.8525L94.3359 42.1943C94.0592 40.2087 93.4977 38.874 92.6514 38.1904C91.805 37.4906 90.1367 37.1406 87.6465 37.1406H83.3496C83.3008 39.7448 83.2682 42.3083 83.252 44.8311C83.2357 47.3538 83.2275 50.2917 83.2275 53.6445V58.21C83.2275 60.3584 83.2764 61.8639 83.374 62.7266C83.4717 63.5892 83.6263 64.2321 83.8379 64.6553C84.082 65.0622 84.4645 65.3551 84.9854 65.5342C85.5062 65.7132 86.2386 65.8027 87.1826 65.8027H88.0371V68C87.6302 67.9837 87.028 67.9593 86.2305 67.9268C83.0404 67.7803 80.8594 67.707 79.6875 67.707C78.8411 67.707 77.7507 67.7314 76.416 67.7803C75.0977 67.8291 73.5189 67.9023 71.6797 68V65.8027Z" fill="white"/>
</svg>
